<svg width="438" height="131" viewBox="0 0 438 131" fill="none" xmlns="http://www.w3.org/2000/svg">
<path d="M173 38.5C281.5 96 174 94 229 68C273 47.2 287.333 71.6667 289 86.5L290.5 89" stroke="#707A89"/>
<g clip-path="url(#clip0_159_3758)">
<path d="M423.98 1.74376L401.12 24.6038C400.247 25.4722 399.555 26.5051 399.084 27.6428C398.612 28.7806 398.372 30.0005 398.375 31.2319V33.75C398.375 34.2473 398.573 34.7242 398.924 35.0758C399.276 35.4275 399.753 35.625 400.25 35.625H402.768C404 35.6285 405.219 35.3877 406.357 34.9165C407.495 34.4453 408.528 33.7531 409.396 32.88L432.256 10.02C433.352 8.92158 433.967 7.4334 433.967 5.88189C433.967 4.33037 433.352 2.84219 432.256 1.74376C431.142 0.678564 429.66 0.0841064 428.118 0.0841064C426.577 0.0841064 425.094 0.678564 423.98 1.74376ZM429.605 7.36876L406.745 30.2288C405.688 31.2796 404.259 31.8711 402.768 31.875H402.125V31.2319C402.129 29.7413 402.72 28.3123 403.771 27.255L426.631 4.39501C427.032 4.01243 427.564 3.79894 428.118 3.79894C428.672 3.79894 429.205 4.01243 429.605 4.39501C429.999 4.78973 430.22 5.32443 430.22 5.88189C430.22 6.43934 429.999 6.97405 429.605 7.36876Z" fill="#FBBC05"/>
<path d="M432.125 16.8356C431.628 16.8356 431.151 17.0332 430.799 17.3848C430.448 17.7364 430.25 18.2133 430.25 18.7106V28.125H422.75C421.258 28.125 419.827 28.7176 418.773 29.7725C417.718 30.8274 417.125 32.2582 417.125 33.75V41.25H398.375C396.883 41.25 395.452 40.6574 394.398 39.6025C393.343 38.5476 392.75 37.1168 392.75 35.625V9.375C392.75 7.88316 393.343 6.45242 394.398 5.39752C395.452 4.34263 396.883 3.75 398.375 3.75H415.329C415.826 3.75 416.303 3.55246 416.655 3.20083C417.006 2.84919 417.204 2.37228 417.204 1.875C417.204 1.37772 417.006 0.900806 416.655 0.549175C416.303 0.197544 415.826 0 415.329 0L398.375 0C395.89 0.00297723 393.507 0.991654 391.749 2.74916C389.992 4.50667 389.003 6.88951 389 9.375V35.625C389.003 38.1105 389.992 40.4933 391.749 42.2508C393.507 44.0084 395.89 44.997 398.375 45H419.643C420.875 45.0035 422.095 44.7627 423.233 44.2915C424.371 43.8204 425.404 43.1282 426.273 42.255L431.253 37.2713C432.126 36.4029 432.819 35.37 433.29 34.2323C433.762 33.0946 434.003 31.8747 434 30.6431V18.7106C434 18.2133 433.802 17.7364 433.451 17.3848C433.099 17.0332 432.622 16.8356 432.125 16.8356ZM423.622 39.6038C422.868 40.3556 421.915 40.8761 420.875 41.1038V33.75C420.875 33.2527 421.073 32.7758 421.424 32.4242C421.776 32.0725 422.253 31.875 422.75 31.875H430.109C429.877 32.9128 429.358 33.8642 428.609 34.62L423.622 39.6038Z" fill="#FBBC05"/>
</g>
<g clip-path="url(#clip1_159_3758)">
<path d="M298.5 86.0787C293.539 86.0842 288.782 88.0574 285.274 91.5654C281.765 95.0735 279.792 99.8299 279.786 104.791C279.786 109.61 283.517 117.151 290.876 127.205C291.752 128.405 292.9 129.382 294.224 130.055C295.549 130.728 297.014 131.079 298.5 131.079C299.986 131.079 301.451 130.728 302.776 130.055C304.101 129.382 305.248 128.405 306.124 127.205C313.483 117.151 317.214 109.61 317.214 104.791C317.208 99.8299 315.235 95.0735 311.726 91.5654C308.218 88.0574 303.461 86.0842 298.5 86.0787ZM298.5 112.25C297.017 112.25 295.567 111.81 294.333 110.986C293.1 110.162 292.139 108.991 291.571 107.62C291.003 106.25 290.855 104.742 291.144 103.287C291.434 101.832 292.148 100.496 293.197 99.4467C294.246 98.3978 295.582 97.6835 297.037 97.3941C298.492 97.1047 300 97.2532 301.37 97.8209C302.741 98.3885 303.912 99.3498 304.736 100.583C305.56 101.817 306 103.267 306 104.75C306 106.739 305.21 108.647 303.803 110.053C302.397 111.46 300.489 112.25 298.5 112.25Z" fill="#707A89"/>
</g>
<g clip-path="url(#clip2_159_3758)">
<path d="M172.811 25.125H128V23.25C128 18.0806 132.206 13.875 137.375 13.875H142.115C142.983 13.875 143.853 14.0794 144.629 14.4675L150.547 17.4263C150.806 17.5556 151.096 17.6231 151.385 17.6231H163.625C165.785 17.6266 167.878 18.3744 169.551 19.7405C171.224 21.1066 172.375 23.0094 172.811 25.125ZM173 28.875V45.75C173 50.9194 168.794 55.125 163.625 55.125H137.375C132.206 55.125 128 50.9194 128 45.75V28.875H173ZM157.451 37.275L154.426 34.2506C153.384 33.2116 151.973 32.6281 150.501 32.6281C149.029 32.6281 147.618 33.2116 146.576 34.2506L143.549 37.275C141.823 39.0169 144.461 41.6531 146.201 39.9263L148.625 37.5019V49.4981C148.636 51.9506 152.366 51.9488 152.375 49.4981V37.5019L154.799 39.9263C156.541 41.6531 159.177 39.015 157.451 37.275Z" fill="#707A89"/>
</g>
<g clip-path="url(#clip3_159_3758)">
<path d="M44.4345 89.2221L9.72846 123.919C10.4787 124.284 11.3017 124.477 12.1364 124.481H18.0803C18.3264 124.48 18.5703 124.528 18.7977 124.623C19.0251 124.717 19.2316 124.855 19.4051 125.03L22.6263 128.249C23.4912 129.12 24.5197 129.811 25.6526 130.284C26.7855 130.756 28.0006 130.999 29.2279 131C30.2514 130.999 31.2678 130.831 32.2373 130.504C35.5796 129.408 38.0106 126.51 38.5092 123.029L44.841 92.953C45.1433 91.6999 44.9996 90.3807 44.4345 89.2221ZM38.1008 86.1451L8.09819 92.4658C2.9718 93.1701 -0.613036 97.8968 0.0912473 103.023C0.369415 105.048 1.30183 106.926 2.74641 108.371L5.96575 111.591C6.13999 111.765 6.27817 111.972 6.37238 112.199C6.4666 112.427 6.515 112.671 6.51483 112.917V118.861C6.51915 119.696 6.71129 120.519 7.07699 121.269L41.7773 86.5631C40.637 86.0027 39.3377 85.855 38.1008 86.1451Z" fill="#707A89"/>
</g>
<g filter="url(#filter0_f_159_3758)">
<ellipse cx="412.5" cy="57.5" rx="21.5" ry="2.5" fill="#D9D9D9"/>
</g>
<path d="M40.6984 87.1681C40.6984 87.1681 111 68.9998 74.4363 45.6354C37.8721 22.271 128 34.9998 128 34.9998" stroke="#707A89"/>
<path d="M388.957 37.0506C390.267 33.5611 368.13 113.708 359.234 78.217C350.338 42.7256 310.184 101.385 315.259 97.0618" stroke="#707A89"/>
<defs>
<filter id="filter0_f_159_3758" x="387" y="51" width="51" height="13" filterUnits="userSpaceOnUse" color-interpolation-filters="sRGB">
<feFlood flood-opacity="0" result="BackgroundImageFix"/>
<feBlend mode="normal" in="SourceGraphic" in2="BackgroundImageFix" result="shape"/>
<feGaussianBlur stdDeviation="2" result="effect1_foregroundBlur_159_3758"/>
</filter>
<clipPath id="clip0_159_3758">
<rect width="45" height="45" fill="white" transform="translate(389)"/>
</clipPath>
<clipPath id="clip1_159_3758">
<rect width="45" height="45" fill="white" transform="translate(276 86)"/>
</clipPath>
<clipPath id="clip2_159_3758">
<rect width="45" height="45" fill="white" transform="translate(128 12)"/>
</clipPath>
<clipPath id="clip3_159_3758">
<rect width="45" height="45" fill="white" transform="translate(0 86)"/>
</clipPath>
</defs>
</svg>
